<?xml version="1.0" encoding="utf-8"?>
<!-- Generator: Adobe Illustrator 24.3.0, SVG Export Plug-In . SVG Version: 6.00 Build 0)  -->
<svg version="1.1" xmlns="http://www.w3.org/2000/svg" xmlns:xlink="http://www.w3.org/1999/xlink" x="0px" y="0px"
	 viewBox="0 0 1000 1000" style="enable-background:new 0 0 1000 1000;" xml:space="preserve">
<style type="text/css">
	.st0{display:none;}
	.st1{display:inline;fill:url(#SVGID_1_);}
	.st2{display:inline;fill:#42C6EB;}
	.st3{display:inline;fill:none;}
	.st4{display:inline;fill:#6396FF;}
	.st5{display:inline;fill:#2B4ABD;}
	.st6{fill:none;}
	.st7{fill:#6396FF;}
	.st8{fill:#42C6EB;}
	.st9{fill:#2B4ABD;}
</style>
<g id="Layer_2" class="st0">
	
		<image style="display:inline;overflow:visible;" width="910" height="591" xlink:href="UP.png"  transform="matrix(0.782 0 0 0.782 23.7644 -570.5922)">
	</image>
	<linearGradient id="SVGID_1_" gradientUnits="userSpaceOnUse" x1="-349.2979" y1="574.0638" x2="-181.5532" y2="574.0638">
		<stop  offset="1.331947e-07" style="stop-color:#42C6EB"/>
		<stop  offset="1" style="stop-color:#4245EB"/>
	</linearGradient>
	<rect x="-349.3" y="490.2" class="st1" width="167.7" height="167.7"/>
</g>
<g id="Layer_3" class="st0">
	<path class="st2" d="M513.1,711.2c-7.7-1.8-14.1-4.3-19.1-7.4l10.7-24.2c4.7,2.7,9.9,4.9,15.8,6.5c5.8,1.6,11.4,2.5,16.8,2.5
		c4.6,0,7.9-0.4,9.9-1.3c2-0.9,3-2.2,3-4c0-2.1-1.3-3.6-3.9-4.6c-2.6-1-6.8-2.2-12.7-3.4c-7.6-1.6-13.9-3.3-19-5.1s-9.5-4.8-13.2-9
		c-3.8-4.2-5.6-9.8-5.6-17c0-6.2,1.7-11.8,5.2-16.9c3.5-5.1,8.7-9.1,15.6-12c6.9-2.9,15.3-4.4,25.1-4.4c6.8,0,13.4,0.7,19.9,2.2
		c6.5,1.5,12.3,3.6,17.2,6.4l-10,24.1c-9.7-4.9-18.8-7.3-27.5-7.3c-8.5,0-12.8,2.1-12.8,6.2c0,2,1.3,3.5,3.8,4.4
		c2.5,1,6.7,2,12.5,3.2c7.5,1.4,13.8,3,19,4.9c5.2,1.8,9.6,4.8,13.4,8.9c3.8,4.1,5.7,9.8,5.7,16.9c0,6.2-1.7,11.8-5.2,16.8
		c-3.5,5-8.7,9-15.6,12c-6.9,3-15.3,4.4-25.1,4.4C528.8,714,520.8,713.1,513.1,711.2z"/>
	<path class="st2" d="M632.8,679.1l-7.5,8.3v24.4h-32.7v-98.6h32.7v35.8l32.4-35.8h36.2l-39.4,43.4l41.4,55.2h-38.4L632.8,679.1z"/>
	<path class="st2" d="M700.4,613.2h33.2v98.6h-33.2V613.2z"/>
	<path class="st2" d="M749.7,613.2h33.2V686h44.5v25.8h-77.7V613.2z"/>
	<path class="st2" d="M836.6,613.2h33.2V686h44.5v25.8h-77.7V613.2z"/>
</g>
<g id="Layer_1" class="st0">
	<path class="st3" d="M541.6,382.9h-54.2v63.3c0,22.1,17.9,40,40,40h14.2c20.2,0,35.3-4.5,45.3-13.5c10.1-9,15.1-21.7,15.1-38.1
		s-5-29.1-15.1-38.1C576.8,387.4,561.7,382.9,541.6,382.9z"/>
	<path class="st4" d="M727.3,346.3c-16.4-25.2-39.7-44.5-69.9-57.9c-30.2-13.4-65.7-20.2-106.4-20.2h-23.8c-22.1,0-40,17.9-40,40
		v202.5c0,65.9-18.9,117.1-56.7,153.7c-23.9,23.1-53.7,38.8-89.4,47.3v0h91.1c22.1,0,40-17.9,40-40v-71H551
		c40.7,0,76.2-6.7,106.4-20.2c30.2-13.4,53.5-32.7,69.9-57.9c16.4-25.2,24.6-54.6,24.6-88.2C751.9,400.9,743.7,371.5,727.3,346.3z
		 M586.9,472.6c-10.1,9-25.2,13.5-45.3,13.5h-14.2c-22.1,0-40-17.9-40-40v-63.3h54.2c20.2,0,35.3,4.5,45.3,13.5
		c10.1,9,15.1,21.7,15.1,38.1S597,463.6,586.9,472.6z"/>
	<path class="st2" d="M323.8,576.8c-11.6,14.7-28.2,22-50.1,22c-21.8,0-38.5-7.3-50.1-22c-11.6-14.7-17.3-38.2-17.3-70.5V405.1
		c0-26.7-25.7-46-51.4-38.4l-68.6,20.3c-17,5-28.6,20.6-28.6,38.4v85.3c0,65.9,18.9,117.1,56.7,153.7s90.5,54.8,158.1,54.8
		c24.9,0,47.8-2.5,68.6-7.5V506.3C341.1,538.6,335.4,562.1,323.8,576.8z"/>
	<path class="st5" d="M487.2,510.7V268.2h0l-117.5,34.8c-17,5-28.6,20.6-28.6,38.4v164.9v205.4c35.7-8.5,65.6-24.3,89.4-47.3
		C468.4,627.8,487.2,576.6,487.2,510.7z"/>
</g>
<g id="Layer_1_copy">
	<path class="st6" d="M691,348.6h-70.9v82.8c0,28.9,23.4,52.4,52.4,52.4H691c26.4,0,46.2-5.9,59.4-17.7
		c13.2-11.8,19.8-28.4,19.8-49.9s-6.6-38-19.8-49.9C737.2,354.5,717.4,348.6,691,348.6z"/>
	<path class="st7" d="M934.2,300.8c-21.4-33-51.9-58.2-91.5-75.8c-39.6-17.6-86-26.4-139.3-26.4h-31.1c-28.9,0-52.4,23.4-52.4,52.4
		v265c0,86.3-24.7,153.3-74.2,201.1c-31.2,30.2-70.3,50.8-117.1,62v0h119.2c28.9,0,52.4-23.4,52.4-52.4v-92.9h103.1
		c53.3,0,99.7-8.8,139.3-26.4c39.6-17.6,70.1-42.9,91.5-75.8c21.4-33,32.1-71.4,32.1-115.4C966.4,372.2,955.6,333.8,934.2,300.8z
		 M750.4,466.1c-13.2,11.8-33,17.7-59.4,17.7h-18.5c-28.9,0-52.4-23.4-52.4-52.4v-82.8H691c26.4,0,46.2,5.9,59.4,17.7
		c13.2,11.8,19.8,28.4,19.8,49.9S763.6,454.3,750.4,466.1z"/>
	<path class="st8" d="M406,602.5c-15.1,19.2-37,28.9-65.5,28.9c-28.6,0-50.4-9.6-65.5-28.9c-15.1-19.2-22.7-50-22.7-92.3V377.7
		c0-35-33.7-60.1-67.2-50.2l-89.8,26.6c-22.2,6.6-37.5,27-37.5,50.2V516c0,86.3,24.7,153.3,74.2,201.1
		c49.5,47.8,118.4,71.7,206.9,71.7c32.6,0,62.5-3.3,89.9-9.8V510.2C428.7,552.5,421.1,583.3,406,602.5z"/>
	<path class="st9" d="M619.9,516V198.6h0l-153.8,45.6c-22.2,6.6-37.5,27-37.5,50.2v215.8V779c46.8-11.1,85.8-31.8,117.1-62
		C595.2,669.3,619.9,602.2,619.9,516z"/>
</g>
</svg>
